<?xml version="1.0" encoding="UTF-8"?>
<!DOCTYPE svg PUBLIC "-//W3C//DTD SVG 1.1//EN" "http://www.w3.org/Graphics/SVG/1.1/DTD/svg11.dtd">
<!-- Creator: CorelDRAW X7 -->
<svg xmlns="http://www.w3.org/2000/svg" xml:space="preserve" width="127mm" height="101.6mm" version="1.1" style="shape-rendering:geometricPrecision; text-rendering:geometricPrecision; image-rendering:optimizeQuality; fill-rule:evenodd; clip-rule:evenodd"
viewBox="0 0 12700 10160"
 xmlns:xlink="http://www.w3.org/1999/xlink">
 <defs>
  <style type="text/css">
   <![CDATA[
    .fil1 {fill:#FEFEFE}
    .fil5 {fill:#757475}
    .fil14 {fill:#FAC42B}
    .fil15 {fill:#E94D28}
    .fil12 {fill:#EEF0EF}
    .fil7 {fill:#DE90BA}
    .fil16 {fill:#DDDEDD}
    .fil0 {fill:#CBCBC9}
    .fil13 {fill:#CBCAC7}
    .fil10 {fill:#7C7C79}
    .fil6 {fill:#4DBFDC}
    .fil8 {fill:#40B378}
    .fil9 {fill:#282727}
    .fil3 {fill:#0BAE8D}
    .fil2 {fill:#30373D}
    .fil4 {fill:#2D3338}
    .fil11 {fill:#3E4B62}
   ]]>
  </style>
 </defs>
 <g id="Layer_x0020_1">
  <metadata id="CorelCorpID_0Corel-Layer"/>
  <g id="_1707853641184">
   <path class="fil0" d="M9102 8951c0,185 -150,334 -334,334l-6686 0c-185,0 -334,-149 -334,-334l0 -4136c0,-185 149,-335 334,-335l6686 0c184,0 334,150 334,335l0 4136z"/>
   <polygon class="fil1" points="8802,8950 2076,8950 2076,4797 8802,4797 "/>
   <path class="fil2" d="M310 9261c-5,30 -7,60 -7,92 0,264 160,478 358,478l9556 0c198,0 358,-214 358,-478 0,-32 -2,-62 -7,-92l-10258 0z"/>
   <path class="fil3" d="M10218 9831c0,0 0,0 0,0 0,0 0,0 0,0zm-9558 0c0,0 0,0 0,0 0,0 0,0 0,0zm9559 0c0,0 0,0 0,0 0,0 0,0 0,0zm-9560 0c0,0 0,0 0,0 0,0 0,0 0,0zm9561 0c0,0 0,0 0,0 0,0 0,0 0,0zm-9562 0c0,0 0,0 0,0 0,0 0,0 0,0zm9563 0c0,0 0,0 0,0 0,0 0,0 0,0zm-9564 0c0,0 0,0 0,0 0,0 0,0 0,0zm9564 0c0,0 0,0 1,0 -1,0 -1,0 -1,0zm-9564 0c-1,0 -1,0 -1,0 0,0 0,0 1,0zm9565 0c0,0 0,0 0,0 0,0 0,0 0,0zm1 0c0,0 0,0 0,0 0,0 0,0 0,0zm-9568 0c0,0 0,0 0,0 0,0 0,0 0,0zm9570 0l0 0 0 0z"/>
   <path class="fil4" d="M10217 9831l-1127 0 -7100 0 -1329 0c-1,0 -1,0 -1,0 0,0 0,0 0,0 0,0 -1,0 -1,0 0,0 0,0 0,0 0,0 0,0 -1,0 0,0 0,0 0,0 0,0 0,0 -1,0 0,0 0,0 0,0 0,0 0,0 0,0 -1,0 -1,0 -1,0 0,0 -1,0 -1,0 0,0 0,0 0,0 -144,-3 -267,-120 -321,-285l10210 0c-54,165 -176,281 -319,285l0 0c-1,0 -1,0 -2,0 0,0 0,0 0,0 0,0 0,0 -1,0 0,0 0,0 0,0 0,0 0,0 0,0 -1,0 -1,0 -1,0 0,0 0,0 0,0 0,0 0,0 0,0 -1,0 -1,0 -1,0 0,0 0,0 0,0 -1,0 -1,0 -1,0 0,0 0,0 0,0 0,0 -1,0 -1,0 0,0 0,0 0,0 0,0 -1,0 -1,0l0 0z"/>
   <polygon class="fil5" points="4109,5270 2425,5270 2425,5186 4109,5186 "/>
   <polygon class="fil5" points="4109,5521 2425,5521 2425,5437 4109,5437 "/>
   <polygon class="fil5" points="4109,5754 2425,5754 2425,5670 4109,5670 "/>
   <polygon class="fil5" points="4109,7915 2425,7915 2425,7831 4109,7831 "/>
   <polygon class="fil5" points="4109,7639 2425,7639 2425,7555 4109,7555 "/>
   <polygon class="fil5" points="4109,8200 2425,8200 2425,8117 4109,8117 "/>
   <polygon class="fil5" points="6118,6284 4434,6284 4434,6200 6118,6200 "/>
   <polygon class="fil5" points="4341,6284 2657,6284 2657,6200 4341,6200 "/>
   <polygon class="fil5" points="4341,6517 2657,6517 2657,6433 4341,6433 "/>
   <polygon class="fil5" points="5225,6517 4434,6517 4434,6433 5225,6433 "/>
   <polygon class="fil5" points="4341,6967 2657,6967 2657,6883 4341,6883 "/>
   <polygon class="fil5" points="5225,6967 4434,6967 4434,6883 5225,6883 "/>
   <polygon class="fil5" points="7234,6740 6444,6740 6444,6656 7234,6656 "/>
   <polygon class="fil5" points="6295,6014 2657,6014 2657,5930 6295,5930 "/>
   <polygon class="fil5" points="6295,6740 2657,6740 2657,6656 6295,6656 "/>
   <polygon class="fil5" points="7234,7233 6444,7233 6444,7149 7234,7149 "/>
   <polygon class="fil5" points="6295,7233 2657,7233 2657,7149 6295,7149 "/>
   <polygon class="fil5" points="7002,8433 6211,8433 6211,8349 7002,8349 "/>
   <polygon class="fil5" points="6062,8433 2425,8433 2425,8349 6062,8349 "/>
   <path class="fil6" d="M2514 9404c0,36 -30,66 -66,66 -37,0 -67,-30 -67,-66 0,-37 30,-67 67,-67 36,0 66,30 66,67z"/>
   <path class="fil7" d="M2093 9404c0,36 -30,66 -66,66 -37,0 -67,-30 -67,-66 0,-37 30,-67 67,-67 36,0 66,30 66,67z"/>
   <path class="fil8" d="M2300 9404c0,36 -30,66 -66,66 -37,0 -67,-30 -67,-66 0,-37 30,-67 67,-67 36,0 66,30 66,67z"/>
   <path class="fil9" d="M1802 9464l-516 0c-33,0 -60,-27 -60,-60 0,-34 27,-61 60,-61l516 0c34,0 61,27 61,61 0,33 -27,60 -61,60z"/>
   <path class="fil10" d="M5439 4735c-54,0 -98,-44 -98,-98 0,-54 44,-97 98,-97 54,0 98,43 98,97 0,54 -44,98 -98,98z"/>
   <path class="fil11" d="M12232 3949l-1263 -1c2,-11 3,-22 3,-33 0,-123 -99,-222 -222,-222 -122,0 -222,99 -222,222 0,11 1,22 3,33l-1263 0c-91,0 -165,73 -165,164l-1 4081c0,91 73,165 164,165l2965 1c91,0 164,-73 164,-164l2 -4081c0,-91 -74,-165 -165,-165z"/>
   <polygon class="fil12" points="12139,4292 9390,4291 9388,8086 11372,8087 12138,7451 "/>
   <polygon class="fil13" points="11371,8086 12138,7451 11372,7450 "/>
   <polygon class="fil14" points="9733,4979 9547,4979 9547,4793 9733,4793 "/>
   <polygon class="fil13" points="9733,5365 9547,5365 9547,5179 9733,5179 "/>
   <polygon class="fil13" points="9733,5766 9547,5766 9547,5580 9733,5580 "/>
   <polygon class="fil13" points="9733,6210 9547,6210 9547,6024 9733,6024 "/>
   <polygon class="fil13" points="9732,6661 9546,6661 9546,6475 9733,6475 "/>
   <polygon class="fil14" points="11619,4932 9958,4931 9958,4836 11619,4836 "/>
   <polygon class="fil13" points="11618,5321 9957,5320 9957,5225 11619,5225 "/>
   <polygon class="fil13" points="11618,5722 9957,5721 9957,5626 11618,5626 "/>
   <polygon class="fil13" points="11618,6166 9957,6165 9957,6070 11618,6070 "/>
   <polygon class="fil13" points="11618,6617 9957,6616 9957,6521 11618,6521 "/>
   <path class="fil15" d="M10853 3912c0,57 -46,103 -103,103 -56,0 -102,-46 -102,-103 0,-56 46,-102 102,-102 57,0 103,46 103,102z"/>
   <polygon class="fil16" points="4646,2858 4552,2760 6737,648 8459,2212 11067,683 11135,800 8441,2380 6740,834 "/>
   <path class="fil11" d="M5044 2809c0,194 -157,351 -351,351 -194,0 -352,-157 -352,-351 0,-194 158,-352 352,-352 194,0 351,158 351,352z"/>
   <path class="fil11" d="M7191 681c0,194 -158,351 -352,351 -194,0 -351,-157 -351,-351 0,-194 157,-352 351,-352 194,0 352,158 352,352z"/>
   <path class="fil11" d="M8802 2296c0,194 -158,352 -352,352 -194,0 -351,-158 -351,-352 0,-194 157,-351 351,-351 194,0 352,157 352,351z"/>
   <path class="fil11" d="M11453 741c0,194 -158,352 -352,352 -194,0 -352,-158 -352,-352 0,-194 158,-351 352,-351 194,0 352,157 352,351z"/>
  </g>
 </g>
</svg>
