<?xml version="1.0" encoding="UTF-8"?>
<!DOCTYPE svg PUBLIC "-//W3C//DTD SVG 1.1//EN" "http://www.w3.org/Graphics/SVG/1.1/DTD/svg11.dtd">
<!-- Creator: CorelDRAW X6 -->
<svg xmlns="http://www.w3.org/2000/svg" xml:space="preserve" width="800px" height="500px" version="1.1" style="shape-rendering:geometricPrecision; text-rendering:geometricPrecision; image-rendering:optimizeQuality; fill-rule:evenodd; clip-rule:evenodd"
viewBox="0 0 800 500"
 xmlns:xlink="http://www.w3.org/1999/xlink">
 <defs>
  <style type="text/css">
   <![CDATA[
    .fil0 {fill:#C9CACA}
   ]]>
  </style>
 </defs>
 <g id="Layer_x0020_1">
  <metadata id="CorelCorpID_0Corel-Layer"/>
  <g id="_382929768">
   <path class="fil0" d="M173 556l15 0 -21 -71 -13 0 -21 71 15 0 3 -13 19 0 3 13zm-13 -51l6 25 -12 0 6 -25z"/>
   <path class="fil0" d="M221 540c0,1 -1,2 -1,2 -1,1 -1,1 -2,2 -1,0 -2,1 -3,1 -2,0 -3,0 -4,-1 -1,0 -2,-1 -3,-2 -1,-1 -2,-2 -2,-3 0,-1 -1,-3 -1,-5l-14 0c0,3 0,5 1,8 1,2 2,4 3,6 1,2 2,3 4,5 2,1 3,2 5,3 2,1 4,2 6,2 2,0 4,1 6,1 3,0 6,-1 9,-1 3,-1 5,-2 7,-4 2,-2 3,-4 4,-6 1,-3 2,-5 2,-9 0,-3 0,-6 -1,-8 -1,-2 -2,-5 -4,-6 -2,-2 -4,-4 -6,-5 -2,-1 -5,-3 -8,-4 -2,-1 -3,-1 -4,-2 -1,-1 -2,-1 -3,-2 -1,-1 -2,-2 -2,-2 0,-1 -1,-2 -1,-3 0,-1 0,-2 0,-3 0,-1 1,-2 2,-2 1,-1 2,-1 3,-2 1,0 2,-1 3,-1 1,0 3,0 3,1 1,0 2,1 3,2 1,1 1,2 2,3 0,1 0,2 0,4l14 0c0,-3 -1,-6 -2,-9 -1,-3 -3,-5 -4,-7 -2,-2 -4,-3 -7,-4 -3,-1 -6,-2 -9,-2 -3,0 -6,1 -9,1 -3,1 -5,2 -7,4 -2,2 -3,4 -5,6 -1,3 -2,5 -2,8 0,3 0,6 2,8 1,2 3,5 4,6 2,2 4,3 6,5 2,1 5,3 7,4 2,1 4,2 5,3 1,1 2,2 3,2 1,1 1,2 2,3 0,1 0,2 0,3 0,1 0,2 0,3l0 0z"/>
   <polygon class="fil0" points="288,485 240,485 240,498 257,498 257,556 271,556 271,498 288,498 "/>
   <path class="fil0" d="M326 556l15 0 0 -1 -12 -29c1,-1 3,-2 4,-3 1,-1 2,-3 3,-4 1,-2 2,-4 2,-6 0,-2 1,-5 1,-7 0,-4 -1,-7 -2,-9 -1,-3 -3,-5 -4,-7 -2,-2 -4,-3 -7,-4 -3,-1 -6,-1 -9,-1l-23 0 0 71 14 0 0 -25 8 0 10 25zm-18 -58l9 0c3,0 5,1 6,3 1,2 2,4 2,7 0,3 -1,5 -2,7 -1,2 -3,3 -6,3l-9 0 0 -20z"/>
   <path class="fil0" d="M383 556l15 0 -21 -71 -13 0 -21 71 15 0 3 -13 19 0 3 13zm-13 -51l6 25 -12 0 6 -25z"/>
   <polygon class="fil0" points="402,485 402,556 416,556 416,540 415,506 429,556 438,556 452,506 451,540 451,556 465,556 465,485 446,485 434,535 421,485 "/>
   <path class="fil0" d="M511 556l15 0 -21 -71 -13 0 -21 71 15 0 3 -13 19 0 3 13zm-13 -51l6 25 -12 0 6 -25z"/>
   <polygon class="fil0" points="534,485 519,485 538,531 538,556 552,556 552,531 571,485 556,485 545,516 "/>
   <path class="fil0" d="M605 556l15 0 -21 -71 -13 0 -21 71 15 0 3 -13 19 0 3 13zm-13 -51l6 25 -12 0 6 -25z"/>
   <polygon class="fil0" points="126,339 111,364 65,260 179,248 164,273 271,334 261,239 -24,208 145,439 232,401 "/>
   <polygon class="fil0" points="588,273 573,248 687,260 641,364 626,339 520,401 607,439 776,208 491,239 481,334 "/>
   <polygon class="fil0" points="338,173 309,173 376,80 443,173 414,173 414,296 491,239 376,-23 261,239 338,296 "/>
  </g>
 </g>
</svg>
